<svg width="11" height="11" viewBox="0 0 11 11" fill="none" xmlns="http://www.w3.org/2000/svg">
<g clip-path="url(#clip0_6_232)">
<path d="M9.00004 1.61112H7.83337V0.833344H7.0556V1.61112H3.94448V0.833344H3.16671V1.61112H2.00004C1.69062 1.61112 1.39388 1.73404 1.17508 1.95283C0.95629 2.17162 0.833374 2.46837 0.833374 2.77779L0.833374 10.1667H10.1667V2.77779C10.1667 2.46837 10.0438 2.17162 9.825 1.95283C9.60621 1.73404 9.30946 1.61112 9.00004 1.61112ZM1.61115 2.77779C1.61115 2.67465 1.65212 2.57573 1.72505 2.5028C1.79799 2.42987 1.8969 2.3889 2.00004 2.3889H9.00004C9.10318 2.3889 9.2021 2.42987 9.27503 2.5028C9.34796 2.57573 9.38893 2.67465 9.38893 2.77779V3.94445H1.61115V2.77779ZM1.61115 9.3889V4.72223H9.38893V9.3889H1.61115Z" fill="#7D7D7D"/>
<path d="M7.44453 5.88892H6.66675V6.6667H7.44453V5.88892Z" fill="#7D7D7D"/>
<path d="M5.88899 5.88892H5.11121V6.6667H5.88899V5.88892Z" fill="#7D7D7D"/>
<path d="M4.33332 5.88892H3.55554V6.6667H4.33332V5.88892Z" fill="#7D7D7D"/>
<path d="M7.44453 7.44452H6.66675V8.2223H7.44453V7.44452Z" fill="#7D7D7D"/>
<path d="M5.88899 7.44452H5.11121V8.2223H5.88899V7.44452Z" fill="#7D7D7D"/>
<path d="M4.33332 7.44452H3.55554V8.2223H4.33332V7.44452Z" fill="#7D7D7D"/>
</g>
<defs>
<clipPath id="clip0_6_232">
<rect width="9.33333" height="9.33333" fill="white" transform="translate(0.833374 0.833344)"/>
</clipPath>
</defs>
</svg>
