<svg width="24" height="24" viewBox="0 0 24 24" fill="none" xmlns="http://www.w3.org/2000/svg">
<g clip-path="url(#clip0_477_451)">
<path d="M20.9998 16.1268V14.9998C20.9998 14.2042 20.6837 13.4411 20.1211 12.8785C19.5585 12.3159 18.7954 11.9998 17.9998 11.9998H12.9998V9.8998C14.2138 9.65199 15.2926 8.96222 16.027 7.96421C16.7614 6.96621 17.099 5.73108 16.9745 4.49828C16.8499 3.26548 16.2721 2.12283 15.3529 1.29187C14.4338 0.460904 13.2389 0.000823975 11.9998 0.000823975C10.7607 0.000823975 9.56578 0.460904 8.64664 1.29187C7.72751 2.12283 7.14965 3.26548 7.02512 4.49828C6.90058 5.73108 7.23822 6.96621 7.9726 7.96421C8.70697 8.96222 9.78575 9.65199 10.9998 9.8998V11.9998H5.9998C5.20415 11.9998 4.44109 12.3159 3.87848 12.8785C3.31587 13.4411 2.9998 14.2042 2.9998 14.9998V16.1268C2.05714 16.3702 1.23561 16.949 0.689194 17.7548C0.142782 18.5606 -0.0909971 19.538 0.0316773 20.5038C0.154352 21.4696 0.625058 22.3575 1.35556 23.0011C2.08607 23.6447 3.02622 23.9998 3.9998 23.9998C4.97337 23.9998 5.91352 23.6447 6.64403 23.0011C7.37453 22.3575 7.84524 21.4696 7.96791 20.5038C8.09059 19.538 7.85681 18.5606 7.3104 17.7548C6.76399 16.949 5.94245 16.3702 4.9998 16.1268V14.9998C4.9998 14.7346 5.10515 14.4802 5.29269 14.2927C5.48023 14.1052 5.73458 13.9998 5.9998 13.9998H10.9998V16.1268C10.0571 16.3702 9.23561 16.949 8.68919 17.7548C8.14278 18.5606 7.909 19.538 8.03168 20.5038C8.15435 21.4696 8.62506 22.3575 9.35556 23.0011C10.0861 23.6447 11.0262 23.9998 11.9998 23.9998C12.9734 23.9998 13.9135 23.6447 14.644 23.0011C15.3745 22.3575 15.8452 21.4696 15.9679 20.5038C16.0906 19.538 15.8568 18.5606 15.3104 17.7548C14.764 16.949 13.9425 16.3702 12.9998 16.1268V13.9998H17.9998C18.265 13.9998 18.5194 14.1052 18.7069 14.2927C18.8944 14.4802 18.9998 14.7346 18.9998 14.9998V16.1268C18.0571 16.3702 17.2356 16.949 16.6892 17.7548C16.1428 18.5606 15.909 19.538 16.0317 20.5038C16.1544 21.4696 16.6251 22.3575 17.3556 23.0011C18.0861 23.6447 19.0262 23.9998 19.9998 23.9998C20.9734 23.9998 21.9135 23.6447 22.644 23.0011C23.3745 22.3575 23.8452 21.4696 23.9679 20.5038C24.0906 19.538 23.8568 18.5606 23.3104 17.7548C22.764 16.949 21.9425 16.3702 20.9998 16.1268V16.1268ZM8.9998 4.9998C8.9998 4.40646 9.17574 3.82644 9.50539 3.33309C9.83503 2.83975 10.3036 2.45523 10.8517 2.22816C11.3999 2.0011 12.0031 1.94169 12.5851 2.05745C13.167 2.1732 13.7016 2.45893 14.1211 2.87848C14.5407 3.29804 14.8264 3.83259 14.9422 4.41453C15.0579 4.99648 14.9985 5.59968 14.7714 6.14785C14.5444 6.69603 14.1599 7.16457 13.6665 7.49421C13.1732 7.82386 12.5931 7.9998 11.9998 7.9998C11.2041 7.9998 10.4411 7.68373 9.87848 7.12112C9.31587 6.55851 8.9998 5.79545 8.9998 4.9998V4.9998ZM5.9998 19.9998C5.9998 20.3954 5.8825 20.782 5.66273 21.1109C5.44297 21.4398 5.13062 21.6962 4.76516 21.8476C4.39971 21.9989 3.99758 22.0385 3.60962 21.9614C3.22165 21.8842 2.86529 21.6937 2.58558 21.414C2.30588 21.1343 2.1154 20.7779 2.03823 20.39C1.96106 20.002 2.00066 19.5999 2.15204 19.2344C2.30341 18.869 2.55976 18.5566 2.88866 18.3369C3.21755 18.1171 3.60423 17.9998 3.9998 17.9998C4.53023 17.9998 5.03894 18.2105 5.41401 18.5856C5.78908 18.9607 5.9998 19.4694 5.9998 19.9998ZM13.9998 19.9998C13.9998 20.3954 13.8825 20.782 13.6627 21.1109C13.443 21.4398 13.1306 21.6962 12.7652 21.8476C12.3997 21.9989 11.9976 22.0385 11.6096 21.9614C11.2217 21.8842 10.8653 21.6937 10.5856 21.414C10.3059 21.1343 10.1154 20.7779 10.0382 20.39C9.96105 20.002 10.0007 19.5999 10.152 19.2344C10.3034 18.869 10.5598 18.5566 10.8887 18.3369C11.2176 18.1171 11.6042 17.9998 11.9998 17.9998C12.5302 17.9998 13.0389 18.2105 13.414 18.5856C13.7891 18.9607 13.9998 19.4694 13.9998 19.9998ZM19.9998 21.9998C19.6042 21.9998 19.2176 21.8825 18.8887 21.6627C18.5598 21.443 18.3034 21.1306 18.152 20.7652C18.0007 20.3997 17.9611 19.9976 18.0382 19.6096C18.1154 19.2217 18.3059 18.8653 18.5856 18.5856C18.8653 18.3059 19.2217 18.1154 19.6096 18.0382C19.9976 17.9611 20.3997 18.0007 20.7652 18.152C21.1306 18.3034 21.443 18.5598 21.6627 18.8887C21.8825 19.2176 21.9998 19.6042 21.9998 19.9998C21.9998 20.5302 21.7891 21.0389 21.414 21.414C21.0389 21.7891 20.5302 21.9998 19.9998 21.9998Z" fill="#7D7D7D"/>
</g>
<defs>
<clipPath id="clip0_477_451">
<rect width="24" height="24" fill="white"/>
</clipPath>
</defs>
</svg>
