<svg width="24" height="24" viewBox="0 0 24 24" fill="none" xmlns="http://www.w3.org/2000/svg">
<g clip-path="url(#clip0_457_403)">
<path d="M24.0005 4.00031H7.00049V6.0003H24.0005V4.00031Z" fill="#7D7D7D"/>
<path d="M24.0005 10.9997H7.00049V12.9997H24.0005V10.9997Z" fill="#7D7D7D"/>
<path d="M24.0005 18H7.00049V20H24.0005V18Z" fill="#7D7D7D"/>
<path d="M2 6.99999C3.10457 6.99999 4 6.10456 4 5C4 3.89543 3.10457 3 2 3C0.89543 3 0 3.89543 0 5C0 6.10456 0.89543 6.99999 2 6.99999Z" fill="#7D7D7D"/>
<path d="M2 14.0003C3.10457 14.0003 4 13.1049 4 12.0003C4 10.8957 3.10457 10.0003 2 10.0003C0.89543 10.0003 0 10.8957 0 12.0003C0 13.1049 0.89543 14.0003 2 14.0003Z" fill="#7D7D7D"/>
<path d="M2 20.9997C3.10457 20.9997 4 20.1042 4 18.9997C4 17.8951 3.10457 16.9997 2 16.9997C0.89543 16.9997 0 17.8951 0 18.9997C0 20.1042 0.89543 20.9997 2 20.9997Z" fill="#7D7D7D"/>
</g>
<defs>
<clipPath id="clip0_457_403">
<rect width="24" height="24" fill="white"/>
</clipPath>
</defs>
</svg>
