<svg width="24" height="24" viewBox="0 0 24 24" fill="none" xmlns="http://www.w3.org/2000/svg">
<g clip-path="url(#clip0_310_347)">
<path d="M12 23.4617L11.134 22.8497C9.99399 22.0437 -1.33784e-05 14.7827 -1.33784e-05 8.1497C-0.0646732 6.29119 0.609055 4.48266 1.8739 3.11944C3.13875 1.75621 4.89185 0.949161 6.74999 0.874695C7.77565 0.884774 8.7847 1.13486 9.69636 1.60493C10.608 2.07499 11.3969 2.75198 12 3.5817C12.603 2.75198 13.392 2.07499 14.3036 1.60493C15.2153 1.13486 16.2243 0.884774 17.25 0.874695C19.1081 0.949161 20.8612 1.75621 22.1261 3.11944C23.3909 4.48266 24.0646 6.29119 24 8.1497C24 14.7827 14.006 22.0437 12.866 22.8497L12 23.4617ZM6.74999 3.8747C5.68795 3.94994 4.69847 4.44108 3.99637 5.24148C3.29427 6.04187 2.93623 7.08691 2.99999 8.1497C2.99999 12.0657 8.86299 17.3597 12 19.7607C15.137 17.3607 21 12.0657 21 8.1497C21.0637 7.08691 20.7057 6.04187 20.0036 5.24148C19.3015 4.44108 18.312 3.94994 17.25 3.8747C16.188 3.94994 15.1985 4.44108 14.4964 5.24148C13.7943 6.04187 13.4362 7.08691 13.5 8.1497H10.5C10.5637 7.08691 10.2057 6.04187 9.50361 5.24148C8.80151 4.44108 7.81202 3.94994 6.74999 3.8747V3.8747Z" fill="#E16C00"/>
</g>
<defs>
<clipPath id="clip0_310_347">
<rect width="24" height="24" fill="white"/>
</clipPath>
</defs>
</svg>
