<svg width="10" height="10" viewBox="0 0 10 10" fill="none" xmlns="http://www.w3.org/2000/svg">
<g clip-path="url(#clip0_297_375)">
<path d="M7.29173 0.382141C6.82254 0.389439 6.36359 0.520413 5.96121 0.761837C5.55884 1.00326 5.2273 1.34659 5.00006 1.75714C4.77283 1.34659 4.44129 1.00326 4.03891 0.761837C3.63654 0.520413 3.17758 0.389439 2.7084 0.382141C1.96046 0.414637 1.25577 0.74183 0.748307 1.29224C0.240839 1.84265 -0.0281654 2.57153 6.40013e-05 3.31964C6.40013e-05 6.14256 4.56506 9.40298 4.75923 9.54131L5.00006 9.71173L5.2409 9.54131C5.43506 9.40381 10.0001 6.14256 10.0001 3.31964C10.0283 2.57153 9.75929 1.84265 9.25182 1.29224C8.74435 0.74183 8.03967 0.414637 7.29173 0.382141V0.382141ZM5.00006 8.68589C3.64465 7.67339 0.833397 5.18589 0.833397 3.31964C0.804914 2.79244 0.98605 2.27536 1.3373 1.88118C1.68855 1.487 2.18141 1.2477 2.7084 1.21547C3.23538 1.2477 3.72825 1.487 4.0795 1.88118C4.43074 2.27536 4.61188 2.79244 4.5834 3.31964H5.41673C5.38825 2.79244 5.56938 2.27536 5.92063 1.88118C6.27188 1.487 6.76474 1.2477 7.29173 1.21547C7.81872 1.2477 8.31158 1.487 8.66283 1.88118C9.01408 2.27536 9.19521 2.79244 9.16673 3.31964C9.16673 5.18672 6.35548 7.67339 5.00006 8.68589Z" fill="#E16C00"/>
</g>
<defs>
<clipPath id="clip0_297_375">
<rect width="10" height="10" fill="white"/>
</clipPath>
</defs>
</svg>
