<svg width="15" height="14" viewBox="0 0 15 14" fill="none" xmlns="http://www.w3.org/2000/svg">
<g clip-path="url(#clip0_218_475)">
<path d="M10.7955 5.29403V0.94873H11.9048V5.29403L13.1483 4.10596L13.9326 4.85526L12.3191 6.39678C12.062 6.64213 11.7135 6.77994 11.3501 6.77994C10.9867 6.77994 10.6382 6.64213 10.3811 6.39678L8.78875 4.87328L9.57524 4.12398L10.7955 5.29403ZM13.1034 7.14873C13.0756 7.17523 13.0429 7.1943 13.0141 7.21921V12.6069H1.92107V5.75506L5.50688 9.18148C6.02694 9.6782 6.7322 9.95724 7.46757 9.95724C8.20294 9.95724 8.9082 9.6782 9.42826 9.18148L10.8803 7.79364C10.4893 7.72037 10.1231 7.55662 9.81374 7.31671L8.64398 8.4343C8.3269 8.72308 7.90564 8.88418 7.46757 8.88418C7.0295 8.88418 6.60824 8.72308 6.29116 8.4343L1.92107 4.25646V4.12822C1.92107 3.98768 1.9795 3.85289 2.08352 3.75351C2.18754 3.65413 2.32862 3.5983 2.47572 3.5983H8.57687L9.68617 2.53847H2.47572C2.03441 2.53847 1.61118 2.70596 1.29913 3.0041C0.987076 3.30223 0.811768 3.70659 0.811768 4.12822L0.811768 13.6667H14.1234V6.16945L13.1034 7.14873Z" fill="#004795"/>
</g>
<defs>
<clipPath id="clip0_218_475">
<rect width="13.3116" height="12.7179" fill="white" transform="translate(0.811768 0.94873)"/>
</clipPath>
</defs>
</svg>
