<svg width="18" height="18" viewBox="0 0 18 18" fill="none" xmlns="http://www.w3.org/2000/svg">
<g clip-path="url(#clip0_324_1008)">
<path d="M17.205 0.794031C16.6951 0.284928 16.004 -0.00101662 15.2835 -0.00101662C14.563 -0.00101662 13.8719 0.284928 13.362 0.794031L0 14.156V17.999H3.843L17.205 4.63703C17.7139 4.12705 17.9997 3.436 17.9997 2.71553C17.9997 1.99506 17.7139 1.30401 17.205 0.794031V0.794031ZM3.225 16.499H1.5V14.774L11.4825 4.79903L13.2075 6.52403L3.225 16.499ZM16.1445 3.57653L14.2642 5.45678L12.543 3.73178L14.4225 1.85453C14.6512 1.62578 14.9615 1.49727 15.285 1.49727C15.6085 1.49727 15.9188 1.62578 16.1475 1.85453C16.3762 2.08328 16.5048 2.39353 16.5048 2.71703C16.5048 3.04053 16.3762 3.35078 16.1475 3.57953L16.1445 3.57653Z" fill="black"/>
</g>
<defs>
<clipPath id="clip0_324_1008">
<rect width="18" height="18" fill="white"/>
</clipPath>
</defs>
</svg>
