<svg width="13" height="12" viewBox="0 0 13 12" fill="none" xmlns="http://www.w3.org/2000/svg">
<path d="M11.1735 3.90939C10.9742 3.90939 10.7878 3.87271 10.6145 3.79935C10.4455 3.726 10.296 3.6246 10.166 3.49515C10.036 3.3657 9.93417 3.21683 9.8605 3.04854C9.78683 2.87594 9.75 2.6904 9.75 2.49191C9.75 2.29773 9.78683 2.11435 9.8605 1.94175C9.93417 1.76915 10.036 1.62028 10.166 1.49515C10.296 1.3657 10.4455 1.26429 10.6145 1.19094C10.7878 1.11327 10.9742 1.07659 11.1735 1.08091C11.3685 1.07659 11.5527 1.11327 11.726 1.19094C11.8993 1.26429 12.051 1.3657 12.181 1.49515C12.3067 1.62028 12.4085 1.76915 12.4865 1.94175C12.5602 2.11435 12.597 2.29773 12.597 2.49191C12.597 2.6904 12.5602 2.87594 12.4865 3.04854C12.4128 3.21683 12.311 3.3657 12.181 3.49515C12.051 3.6246 11.8993 3.726 11.726 3.79935C11.5527 3.87271 11.3685 3.90939 11.1735 3.90939ZM11.1735 1.88997C11.0045 1.88997 10.855 1.94822 10.725 2.06472C10.6167 2.18123 10.5625 2.32362 10.5625 2.49191C10.5625 2.66019 10.6167 2.80475 10.725 2.92557C10.855 3.03344 11.0045 3.08738 11.1735 3.08738C11.3425 3.08738 11.4855 3.03344 11.6025 2.92557C11.7238 2.81769 11.7845 2.67314 11.7845 2.49191C11.7845 2.32362 11.7238 2.18123 11.6025 2.06472C11.4855 1.94822 11.3425 1.88997 11.1735 1.88997ZM13 4.91909V7.94175C13 8.21359 12.948 8.47249 12.844 8.71845C12.7313 8.9644 12.5862 9.17799 12.4085 9.35922C12.2222 9.54477 12.0055 9.68932 11.7585 9.79288C11.5028 9.90076 11.2407 9.95469 10.972 9.95469C10.8073 9.95469 10.6427 9.93096 10.478 9.8835C10.309 9.85329 10.1552 9.79935 10.0165 9.72168C9.9125 10.0626 9.75867 10.3732 9.555 10.6537C9.35133 10.9342 9.113 11.1737 8.84 11.3722C8.567 11.5707 8.26583 11.7217 7.9365 11.8252C7.60717 11.9417 7.26483 12 6.9095 12C6.4935 12 6.10133 11.9288 5.733 11.7864C5.37767 11.644 5.05267 11.4412 4.758 11.178C4.472 10.932 4.23583 10.6386 4.0495 10.2977C3.85883 9.95253 3.73533 9.57713 3.679 9.17152H0.5395C0.3965 9.17152 0.268667 9.11758 0.156 9.00971C0.052 8.90615 0 8.78101 0 8.6343V3.23625C0 3.08954 0.052 2.96224 0.156 2.85437C0.268667 2.75081 0.3965 2.69903 0.5395 2.69903H5.2C5.07433 2.44013 5.0115 2.17044 5.0115 1.88997C5.0115 1.62675 5.06133 1.37864 5.161 1.14563C5.25633 0.929881 5.39067 0.731391 5.564 0.550162C5.73733 0.381877 5.941 0.248112 6.175 0.148867C6.39167 0.0496224 6.63433 0 6.903 0C7.16733 0 7.41433 0.0496224 7.644 0.148867C7.87367 0.248112 8.07517 0.381877 8.2485 0.550162C8.42183 0.731391 8.55617 0.929881 8.6515 1.14563C8.75117 1.37864 8.801 1.62675 8.801 1.88997C8.801 2.14887 8.75117 2.39482 8.6515 2.62783C8.55617 2.85653 8.42183 3.05502 8.2485 3.2233C8.07517 3.3959 7.87367 3.53182 7.644 3.63107C7.41433 3.73031 7.16733 3.77993 6.903 3.77993C6.838 3.77993 6.77083 3.77562 6.7015 3.76699C6.6365 3.75836 6.56933 3.74757 6.5 3.73463V4.31715H12.389C12.558 4.31715 12.7032 4.3754 12.8245 4.49191C12.9415 4.60841 13 4.75081 13 4.91909ZM6.9095 0.822006C6.75783 0.822006 6.62133 0.845739 6.5 0.893204C6.357 0.949299 6.23567 1.02697 6.136 1.12621C6.04067 1.22546 5.96483 1.33981 5.9085 1.46926C5.85217 1.60302 5.824 1.74326 5.824 1.88997C5.824 2.04099 5.85217 2.18123 5.9085 2.31068C5.96483 2.44013 6.04067 2.55448 6.136 2.65372C6.23567 2.74865 6.357 2.82632 6.5 2.88673C6.62133 2.94283 6.75783 2.97087 6.9095 2.97087C7.05683 2.97087 7.1955 2.94283 7.3255 2.88673C7.4555 2.82632 7.57033 2.74865 7.67 2.65372C7.76967 2.55448 7.84767 2.44013 7.904 2.31068C7.96467 2.18123 7.995 2.04099 7.995 1.88997C7.995 1.74326 7.96467 1.60302 7.904 1.46926C7.84767 1.33981 7.76967 1.22546 7.67 1.12621C7.57033 1.02697 7.4555 0.949299 7.3255 0.893204C7.1955 0.845739 7.05683 0.822006 6.9095 0.822006ZM3.757 4.82201H4.979V3.8123H1.521V4.82201H2.743V8.05825H3.757M9.347 8.76375V5.12621H6.5V8.6343C6.5 8.78101 6.448 8.90615 6.344 9.00971C6.23133 9.11758 6.1035 9.17152 5.9605 9.17152H4.498C4.55433 9.46063 4.65617 9.73031 4.8035 9.98058C4.95083 10.2265 5.1285 10.4401 5.3365 10.6214C5.5445 10.7983 5.78283 10.9385 6.0515 11.0421C6.31583 11.1327 6.60183 11.178 6.9095 11.178C7.24317 11.178 7.55733 11.1197 7.852 11.0032C8.14667 10.8738 8.40667 10.699 8.632 10.479C8.853 10.2589 9.02633 10.0022 9.152 9.70874C9.282 9.41532 9.347 9.10032 9.347 8.76375ZM12.1875 7.94175V5.12621H10.1595V8.82201C10.2678 8.92988 10.3913 9.01187 10.53 9.06796C10.66 9.11974 10.8073 9.14563 10.972 9.14563C11.141 9.14563 11.2992 9.11327 11.4465 9.04854C11.5938 8.98382 11.7217 8.89752 11.83 8.78964C11.9427 8.68177 12.0293 8.55232 12.09 8.40129C12.155 8.25458 12.1875 8.1014 12.1875 7.94175Z" fill="#E16C00"/>
</svg>
