<svg width="13" height="13" viewBox="0 0 13 13" fill="none" xmlns="http://www.w3.org/2000/svg">
<g clip-path="url(#clip0_297_381)">
<path d="M13 6.5C13 8.22391 12.3152 9.87721 11.0962 11.0962C9.87721 12.3152 8.22391 13 6.5 13C4.77609 13 3.12279 12.3152 1.90381 11.0962C0.684819 9.87721 0 8.22391 0 6.5C0 6.30121 0.00920833 6.10404 0.0265417 5.90958L1.10554 6.00763C1.09074 6.16976 1.08333 6.33389 1.08333 6.5C1.08333 7.57132 1.40102 8.61857 1.99621 9.50934C2.5914 10.4001 3.43736 11.0944 4.42713 11.5043C5.4169 11.9143 6.50601 12.0216 7.55674 11.8126C8.60747 11.6036 9.57263 11.0877 10.3302 10.3302C11.0877 9.57263 11.6036 8.60747 11.8126 7.55674C12.0216 6.50601 11.9143 5.4169 11.5043 4.42713C11.0944 3.43736 10.4001 2.5914 9.50934 1.99621C8.61857 1.40102 7.57132 1.08333 6.5 1.08333C6.33389 1.08333 6.16976 1.09074 6.00763 1.10554L5.90958 0.0265417C6.10404 0.00920833 6.30121 0 6.5 0C8.22334 0.00186392 9.87555 0.687282 11.0941 1.90586C12.3127 3.12445 12.9981 4.77667 13 6.5ZM3.06746 2.30913L2.38063 1.47171C2.04815 1.74503 1.74336 2.05038 1.47063 2.38333L2.30858 3.06854C2.53615 2.79124 2.79032 2.53689 3.06746 2.30913ZM4.95192 1.30813L4.64263 0.270833C4.23023 0.393441 3.83104 0.556744 3.45096 0.758333L3.95958 1.71492C4.27602 1.54667 4.60844 1.4104 4.95192 1.30813V1.30813ZM1.71383 3.96229L0.758333 3.45313C0.556838 3.83325 0.393539 4.23243 0.270833 4.64479L1.30921 4.95408C1.41079 4.61052 1.54634 4.27792 1.71383 3.96121V3.96229ZM5.95833 3.25V5.56671C5.79606 5.66111 5.66111 5.79606 5.56671 5.95833H3.79167V7.04167H5.56671C5.64943 7.18533 5.76411 7.30803 5.90187 7.40025C6.03963 7.49247 6.19677 7.55174 6.36111 7.57348C6.52546 7.59521 6.69261 7.57883 6.8496 7.52558C7.0066 7.47234 7.14923 7.38368 7.26645 7.26645C7.38368 7.14923 7.47234 7.0066 7.52558 6.8496C7.57883 6.69261 7.59521 6.52546 7.57348 6.36111C7.55174 6.19677 7.49247 6.03963 7.40025 5.90187C7.30803 5.76411 7.18533 5.64943 7.04167 5.56671V3.25H5.95833Z" fill="#7D7D7D"/>
</g>
<defs>
<clipPath id="clip0_297_381">
<rect width="13" height="13" fill="white"/>
</clipPath>
</defs>
</svg>
