<svg width="24" height="24" viewBox="0 0 24 24" fill="none" xmlns="http://www.w3.org/2000/svg">
<g clip-path="url(#clip0_406_379)">
<path d="M20.9005 7.0057H2.79345L7.10045 2.7007L5.68245 1.2887L0.732454 6.2377C0.263777 6.70652 0.000488281 7.34229 0.000488281 8.0052C0.000488281 8.66811 0.263777 9.30388 0.732454 9.7727L5.68245 14.7237L7.10045 13.3097L2.80045 9.0097H20.9005C21.1719 8.99148 21.4396 9.08099 21.6455 9.25882C21.8514 9.43665 21.979 9.68847 22.0005 9.9597V21.0597C21.9787 21.3307 21.8511 21.5823 21.6452 21.7599C21.4393 21.9376 21.1718 22.0269 20.9005 22.0087H2.00045V24.0087H20.9005C21.7027 24.0272 22.4795 23.7269 23.0607 23.1735C23.6418 22.6201 23.9798 21.8589 24.0005 21.0567V9.9557C23.9792 9.15386 23.641 8.39313 23.06 7.84018C22.4789 7.28723 21.7024 6.98716 20.9005 7.0057V7.0057Z" fill="black"/>
</g>
<defs>
<clipPath id="clip0_406_379">
<rect width="24" height="24" fill="white"/>
</clipPath>
</defs>
</svg>
