<svg width="16" height="16" viewBox="0 0 16 16" fill="none" xmlns="http://www.w3.org/2000/svg">
<g clip-path="url(#clip0_142_157)">
<path d="M13.9336 4.67049H1.86222L4.73355 1.80049L3.78822 0.859161L0.488222 4.15849C0.17577 4.47104 0.000244141 4.89489 0.000244141 5.33683C0.000244141 5.77877 0.17577 6.20262 0.488222 6.51516L3.78822 9.81583L4.73355 8.87316L1.86689 6.00649H13.9336C14.1145 5.99435 14.293 6.05402 14.4303 6.17258C14.5675 6.29113 14.6526 6.45901 14.6669 6.63983V14.0398C14.6524 14.2205 14.5673 14.3882 14.4301 14.5066C14.2928 14.6251 14.1144 14.6846 13.9336 14.6725H1.33355V16.0058H13.9336C14.4684 16.0182 14.9863 15.8179 15.3737 15.449C15.7611 15.0801 15.9864 14.5726 16.0002 14.0378V6.63716C15.9861 6.1026 15.7606 5.59545 15.3732 5.22682C14.9859 4.85819 14.4682 4.65813 13.9336 4.67049V4.67049Z" fill="white"/>
</g>
<defs>
<clipPath id="clip0_142_157">
<rect width="16" height="16" fill="white"/>
</clipPath>
</defs>
</svg>
