<svg width="13" height="13" viewBox="0 0 13 13" fill="none" xmlns="http://www.w3.org/2000/svg">
<g clip-path="url(#clip0_6_132)">
<path d="M11.375 1.08333H9.75V0H8.66667V1.08333H4.33333V0H3.25V1.08333H1.625C1.19402 1.08333 0.780698 1.25454 0.475951 1.55928C0.171205 1.86403 0 2.27736 0 2.70833L0 13H13V2.70833C13 2.27736 12.8288 1.86403 12.524 1.55928C12.2193 1.25454 11.806 1.08333 11.375 1.08333ZM1.08333 2.70833C1.08333 2.56467 1.1404 2.4269 1.24198 2.32532C1.34357 2.22374 1.48134 2.16667 1.625 2.16667H11.375C11.5187 2.16667 11.6564 2.22374 11.758 2.32532C11.8596 2.4269 11.9167 2.56467 11.9167 2.70833V4.33333H1.08333V2.70833ZM1.08333 11.9167V5.41667H11.9167V11.9167H1.08333Z" fill="#004795"/>
<path d="M9.20834 7.04172H8.125V8.12506H9.20834V7.04172Z" fill="#004795"/>
<path d="M7.04177 7.04172H5.95844V8.12506H7.04177V7.04172Z" fill="#004795"/>
<path d="M4.8749 7.04172H3.79156V8.12506H4.8749V7.04172Z" fill="#004795"/>
<path d="M9.20834 9.20841H8.125V10.2918H9.20834V9.20841Z" fill="#004795"/>
<path d="M7.04177 9.20841H5.95844V10.2918H7.04177V9.20841Z" fill="#004795"/>
<path d="M4.8749 9.20841H3.79156V10.2918H4.8749V9.20841Z" fill="#004795"/>
</g>
<defs>
<clipPath id="clip0_6_132">
<rect width="13" height="13" fill="white"/>
</clipPath>
</defs>
</svg>
