<svg width="13" height="14" viewBox="0 0 13 14" fill="none" xmlns="http://www.w3.org/2000/svg">
<g clip-path="url(#clip0_324_788)">
<path d="M13 7.06929C13 8.70498 12.3152 10.2737 11.0962 11.4303C9.87721 12.5869 8.22391 13.2367 6.5 13.2367C4.77609 13.2367 3.12279 12.5869 1.90381 11.4303C0.684819 10.2737 0 8.70498 0 7.06929C0 6.88067 0.00920833 6.69359 0.0265417 6.50909L1.10554 6.60211C1.09074 6.75595 1.08333 6.91168 1.08333 7.06929C1.08333 8.08578 1.40102 9.07945 1.99621 9.92463C2.5914 10.7698 3.43736 11.4286 4.42713 11.8176C5.4169 12.2065 6.50601 12.3083 7.55674 12.11C8.60747 11.9117 9.57263 11.4222 10.3302 10.7035C11.0877 9.98468 11.6036 9.06892 11.8126 8.07195C12.0216 7.07499 11.9143 6.04161 11.5043 5.1025C11.0944 4.16338 10.4001 3.3607 9.50934 2.79597C8.61857 2.23123 7.57132 1.92981 6.5 1.92981C6.33389 1.92981 6.16976 1.93683 6.00763 1.95088L5.90958 0.927096C6.10404 0.91065 6.30121 0.901913 6.5 0.901913C8.22334 0.903681 9.87555 1.55402 11.0941 2.71025C12.3127 3.86647 12.9981 5.43414 13 7.06929ZM3.06746 3.09287L2.38063 2.29831C2.04815 2.55765 1.74336 2.84736 1.47063 3.16328L2.30858 3.81343C2.53615 3.55032 2.79032 3.30898 3.06746 3.09287ZM4.95192 2.1431L4.64263 1.15889C4.23023 1.27522 3.83104 1.43017 3.45096 1.62144L3.95958 2.52907C4.27602 2.36943 4.60844 2.24013 4.95192 2.1431V2.1431ZM1.71383 4.66144L0.758333 4.17833C0.556838 4.53901 0.393539 4.91776 0.270833 5.30902L1.30921 5.60248C1.41079 5.2765 1.54634 4.96092 1.71383 4.66042V4.66144ZM5.95833 3.9856V6.18376C5.79606 6.27333 5.66111 6.40138 5.56671 6.55534H3.79167V7.58324H5.56671C5.64943 7.71955 5.76411 7.83597 5.90187 7.92347C6.03963 8.01097 6.19677 8.06721 6.36111 8.08784C6.52546 8.10846 6.69261 8.09291 6.8496 8.04239C7.0066 7.99187 7.14923 7.90775 7.26645 7.79652C7.38368 7.6853 7.47234 7.54996 7.52558 7.401C7.57883 7.25204 7.59521 7.09345 7.57348 6.93751C7.55174 6.78157 7.49247 6.63248 7.40025 6.50177C7.30803 6.37106 7.18533 6.26225 7.04167 6.18376V3.9856H5.95833Z" fill="#7D7D7D"/>
</g>
<defs>
<clipPath id="clip0_324_788">
<rect width="13" height="12.3348" fill="white" transform="translate(0 0.901913)"/>
</clipPath>
</defs>
</svg>
