<svg width="10" height="10" viewBox="0 0 10 10" fill="none" xmlns="http://www.w3.org/2000/svg">
<g clip-path="url(#clip0_297_369)">
<path d="M10 6.66667V10H6.66667C6.08212 9.9994 5.50802 9.84509 5.00194 9.55256C4.49586 9.26003 4.0756 8.83956 3.78333 8.33333C4.09745 8.33109 4.41049 8.29646 4.7175 8.23C4.95131 8.52235 5.24791 8.75834 5.58533 8.92049C5.92274 9.08263 6.29232 9.16677 6.66667 9.16667H9.16667V6.66667C9.16657 6.29218 9.08217 5.92252 8.91974 5.5851C8.7573 5.24768 8.52099 4.95115 8.22833 4.7175C8.29535 4.41055 8.33054 4.0975 8.33333 3.78333C8.83956 4.0756 9.26003 4.49586 9.55256 5.00194C9.84509 5.50802 9.9994 6.08212 10 6.66667ZM7.5 3.75C7.5 2.75544 7.10491 1.80161 6.40165 1.09835C5.69839 0.395088 4.74456 0 3.75 0C2.75544 0 1.80161 0.395088 1.09835 1.09835C0.395088 1.80161 0 2.75544 0 3.75L0 7.5H3.75C4.74422 7.4989 5.69741 7.10345 6.40043 6.40043C7.10345 5.69741 7.4989 4.74422 7.5 3.75V3.75ZM0.833333 3.75C0.833333 3.17314 1.00439 2.60923 1.32488 2.12959C1.64537 1.64994 2.10089 1.27611 2.63384 1.05535C3.16679 0.834596 3.75324 0.776836 4.31901 0.889376C4.88479 1.00192 5.40449 1.2797 5.81239 1.68761C6.2203 2.09551 6.49808 2.61521 6.61062 3.18099C6.72316 3.74676 6.6654 4.33321 6.44465 4.86616C6.22389 5.39911 5.85006 5.85463 5.37041 6.17512C4.89077 6.49561 4.32686 6.66667 3.75 6.66667H0.833333V3.75Z" fill="#004795"/>
</g>
<defs>
<clipPath id="clip0_297_369">
<rect width="10" height="10" fill="white"/>
</clipPath>
</defs>
</svg>
