<svg width="24" height="24" viewBox="0 0 24 24" fill="none" xmlns="http://www.w3.org/2000/svg">
<g clip-path="url(#clip0_477_410)">
<path d="M0.000144958 24H11.9821C14.3232 23.9989 16.6127 23.313 18.5688 22.027C20.5249 20.7409 22.0622 18.9107 22.9911 16.7619C23.9201 14.6131 24.2003 12.2395 23.7972 9.9335C23.394 7.62746 22.3252 5.48969 20.7223 3.78351C19.1194 2.07733 17.0524 0.877261 14.776 0.331108C12.4996 -0.215046 10.1131 -0.0834261 7.9106 0.709755C5.70805 1.50294 3.78561 2.92304 2.38006 4.79514C0.97451 6.66724 0.147239 8.90958 0.000144958 11.246V11.309V24ZM11.9821 1.99997C14.6343 1.99997 17.1778 3.05354 19.0532 4.9289C20.9286 6.80427 21.9821 9.34781 21.9821 12C21.9821 14.6521 20.9286 17.1957 19.0532 19.071C17.1778 20.9464 14.6343 22 11.9821 22H2.00014V11.341C2.17162 8.80929 3.29743 6.437 5.1502 4.7032C7.00298 2.9694 9.44466 2.00329 11.9821 1.99997V1.99997Z" fill="#7D7D7D"/>
<path d="M10.9997 6.99982H16.9997V8.99981H10.9997V6.99982Z" fill="#7D7D7D"/>
<path d="M6.99969 11.0002H16.9997V13.0002H6.99969V11.0002Z" fill="#7D7D7D"/>
<path d="M6.99969 15H16.9997V17H6.99969V15Z" fill="#7D7D7D"/>
</g>
<defs>
<clipPath id="clip0_477_410">
<rect width="24" height="24" fill="white" transform="matrix(-1 0 0 1 24 0)"/>
</clipPath>
</defs>
</svg>
