<svg width="19" height="19" viewBox="0 0 19 19" fill="none" xmlns="http://www.w3.org/2000/svg">
<g clip-path="url(#clip0_324_1007)">
<path d="M9.5 0C7.62108 0 5.78435 0.557165 4.22209 1.60104C2.65982 2.64491 1.44218 4.12861 0.723149 5.86451C0.00411622 7.60041 -0.184015 9.51054 0.182544 11.3534C0.549104 13.1962 1.45389 14.8889 2.78249 16.2175C4.11109 17.5461 5.80383 18.4509 7.64665 18.8175C9.48947 19.184 11.3996 18.9959 13.1355 18.2769C14.8714 17.5578 16.3551 16.3402 17.399 14.7779C18.4428 13.2157 19 11.3789 19 9.5C18.9973 6.98128 17.9955 4.5665 16.2145 2.78549C14.4335 1.00449 12.0187 0.00272419 9.5 0V0ZM9.5 1.58333C11.326 1.58188 13.0957 2.21489 14.5065 3.37408L3.37409 14.5065C2.42454 13.3474 1.82373 11.9424 1.64162 10.4551C1.4595 8.96779 1.70356 7.45935 2.34538 6.10536C2.98721 4.75137 4.0004 3.60753 5.26702 2.80697C6.53365 2.00641 8.0016 1.58206 9.5 1.58333V1.58333ZM9.5 17.4167C7.67405 17.4181 5.90431 16.7851 4.4935 15.6259L15.6259 4.4935C16.5755 5.65263 17.1763 7.05761 17.3584 8.54491C17.5405 10.0322 17.2964 11.5406 16.6546 12.8946C16.0128 14.2486 14.9996 15.3925 13.733 16.193C12.4664 16.9936 10.9984 17.4179 9.5 17.4167Z" fill="black"/>
</g>
<defs>
<clipPath id="clip0_324_1007">
<rect width="19" height="19" fill="white"/>
</clipPath>
</defs>
</svg>
