<svg width="24" height="24" viewBox="0 0 24 24" fill="none" xmlns="http://www.w3.org/2000/svg">
<g clip-path="url(#clip0_402_374)">
<path d="M11 11H0V3C0 2.20435 0.31607 1.44129 0.87868 0.87868C1.44129 0.31607 2.20435 0 3 0L11 0V11ZM2 9H9V2H3C2.73478 2 2.48043 2.10536 2.29289 2.29289C2.10536 2.48043 2 2.73478 2 3V9Z" fill="#7D7D7D"/>
<path d="M23.9999 11H12.9999V0H20.9999C21.7955 0 22.5586 0.31607 23.1212 0.87868C23.6838 1.44129 23.9999 2.20435 23.9999 3V11ZM14.9999 9H21.9999V3C21.9999 2.73478 21.8945 2.48043 21.707 2.29289C21.5194 2.10536 21.2651 2 20.9999 2H14.9999V9Z" fill="#7D7D7D"/>
<path d="M11 24H3C2.20435 24 1.44129 23.6839 0.87868 23.1213C0.31607 22.5587 0 21.7956 0 21L0 13H11V24ZM2 15V21C2 21.2652 2.10536 21.5195 2.29289 21.7071C2.48043 21.8946 2.73478 22 3 22H9V15H2Z" fill="#7D7D7D"/>
<path d="M20.9999 24H12.9999V13H23.9999V21C23.9999 21.7956 23.6838 22.5587 23.1212 23.1213C22.5586 23.6839 21.7955 24 20.9999 24ZM14.9999 22H20.9999C21.2651 22 21.5194 21.8946 21.707 21.7071C21.8945 21.5195 21.9999 21.2652 21.9999 21V15H14.9999V22Z" fill="#7D7D7D"/>
</g>
<defs>
<clipPath id="clip0_402_374">
<rect width="24" height="24" fill="white"/>
</clipPath>
</defs>
</svg>
