<svg width="21" height="21" viewBox="0 0 21 21" fill="none" xmlns="http://www.w3.org/2000/svg">
<g clip-path="url(#clip0_463_487)">
<path d="M11.375 1.75V7.875H1.75V2.625C1.75 2.39294 1.84219 2.17038 2.00628 2.00628C2.17038 1.84219 2.39294 1.75 2.625 1.75H11.375ZM13.125 0H2.625C1.92881 0 1.26113 0.276562 0.768845 0.768845C0.276562 1.26113 0 1.92881 0 2.625L0 9.625H13.125V0Z" fill="#7D7D7D"/>
<path d="M18.3747 1.75C18.6068 1.75 18.8294 1.84219 18.9935 2.00628C19.1576 2.17038 19.2497 2.39294 19.2497 2.625V7.875H16.6247V1.75H18.3747ZM18.3747 0H14.8748V9.625H20.9997V2.625C20.9997 1.92881 20.7232 1.26113 20.2309 0.768845C19.7386 0.276562 19.0709 0 18.3747 0V0Z" fill="#7D7D7D"/>
<path d="M4.375 13.1253V19.2503H2.625C2.39294 19.2503 2.17038 19.1581 2.00628 18.994C1.84219 18.8299 1.75 18.6074 1.75 18.3753V13.1253H4.375ZM6.125 11.3753H0V18.3753C0 19.0715 0.276562 19.7392 0.768845 20.2314C1.26113 20.7237 1.92881 21.0003 2.625 21.0003H6.125V11.3753Z" fill="#7D7D7D"/>
<path d="M19.25 13.1253V18.3753C19.25 18.6074 19.1578 18.8299 18.9937 18.994C18.8296 19.1581 18.6071 19.2503 18.375 19.2503H9.625V13.1253H19.25ZM21 11.3753H7.875V21.0003H18.375C19.0712 21.0003 19.7389 20.7237 20.2312 20.2314C20.7234 19.7392 21 19.0715 21 18.3753V11.3753Z" fill="#7D7D7D"/>
</g>
<defs>
<clipPath id="clip0_463_487">
<rect width="21" height="21" fill="white"/>
</clipPath>
</defs>
</svg>
