<svg width="23" height="24" viewBox="0 0 23 24" fill="none" xmlns="http://www.w3.org/2000/svg">
<path d="M12.7823 0.790899C12.4303 0.466551 11.9735 0.287079 11.5 0.287079C11.0265 0.287079 10.5697 0.466551 10.2177 0.790899L0 10.2065V20.4109C0 21.2436 0.323094 22.0423 0.898206 22.6311C1.47332 23.2199 2.25334 23.5507 3.06667 23.5507H19.9333C20.7467 23.5507 21.5267 23.2199 22.1018 22.6311C22.6769 22.0423 23 21.2436 23 20.4109V10.2065L12.7823 0.790899ZM14.375 21.5854H8.625V16.6539C8.625 15.8732 8.9279 15.1245 9.46707 14.5725C10.0062 14.0204 10.7375 13.7103 11.5 13.7103C12.2625 13.7103 12.9938 14.0204 13.5329 14.5725C14.0721 15.1245 14.375 15.8732 14.375 16.6539V21.5854ZM21.0833 20.408C21.0833 20.7202 20.9622 21.0197 20.7465 21.2405C20.5308 21.4613 20.2383 21.5854 19.9333 21.5854H16.2917V16.6539C16.2917 15.3528 15.7868 14.1049 14.8882 13.1849C13.9896 12.2648 12.7708 11.7479 11.5 11.7479C10.2292 11.7479 9.01039 12.2648 8.11178 13.1849C7.21317 14.1049 6.70833 15.3528 6.70833 16.6539V21.5854H3.06667C2.76167 21.5854 2.46916 21.4613 2.25349 21.2405C2.03783 21.0197 1.91667 20.7202 1.91667 20.408V11.0797L11.5 2.24896L21.0833 11.0797V20.408Z" fill="#7D7D7D"/>
</svg>
