<svg width="23" height="24" viewBox="0 0 23 24" fill="none" xmlns="http://www.w3.org/2000/svg">
<path d="M20.125 0.952072H2.875C2.1125 0.952072 1.38124 1.25493 0.842068 1.79402C0.302901 2.33311 0 3.06428 0 3.82667L0 23.9489H23V3.82667C23 3.06428 22.6971 2.33311 22.1579 1.79402C21.6188 1.25493 20.8875 0.952072 20.125 0.952072V0.952072ZM2.875 2.86847H20.125C20.3792 2.86847 20.6229 2.96942 20.8026 3.14912C20.9824 3.32882 21.0833 3.57254 21.0833 3.82667V20.6776L10.6576 10.2533C10.1185 9.71441 9.38735 9.41167 8.625 9.41167C7.86265 9.41167 7.13152 9.71441 6.59238 10.2533L1.91667 14.9284V3.82667C1.91667 3.57254 2.01763 3.32882 2.19736 3.14912C2.37708 2.96942 2.62083 2.86847 2.875 2.86847V2.86847ZM1.91667 17.6382L7.94746 11.6082C8.12717 11.4286 8.37088 11.3277 8.625 11.3277C8.87912 11.3277 9.12283 11.4286 9.30254 11.6082L19.7283 22.0325H1.91667V17.6382Z" fill="#7D7D7D"/>
<path d="M15.3332 10.5334C15.9018 10.5334 16.4577 10.3648 16.9305 10.049C17.4032 9.73312 17.7717 9.28417 17.9893 8.7589C18.2069 8.23364 18.2639 7.65565 18.1529 7.09803C18.042 6.54042 17.7682 6.02821 17.3661 5.62619C16.964 5.22417 16.4518 4.95039 15.8941 4.83948C15.3364 4.72856 14.7583 4.78549 14.233 5.00306C13.7076 5.22063 13.2586 5.58907 12.9427 6.0618C12.6268 6.53452 12.4582 7.0903 12.4582 7.65884C12.4582 8.42123 12.7611 9.1524 13.3003 9.69149C13.8394 10.2306 14.5707 10.5334 15.3332 10.5334V10.5334ZM15.3332 6.70064C15.5227 6.70064 15.708 6.75684 15.8656 6.86213C16.0232 6.96742 16.146 7.11707 16.2186 7.29215C16.2911 7.46724 16.3101 7.6599 16.2731 7.84578C16.2361 8.03165 16.1449 8.20238 16.0108 8.33639C15.8768 8.4704 15.7061 8.56166 15.5202 8.59863C15.3343 8.6356 15.1416 8.61663 14.9665 8.5441C14.7913 8.47158 14.6417 8.34876 14.5364 8.19119C14.4311 8.03361 14.3749 7.84835 14.3749 7.65884C14.3749 7.40471 14.4758 7.16099 14.6555 6.98129C14.8353 6.80159 15.079 6.70064 15.3332 6.70064V6.70064Z" fill="#7D7D7D"/>
</svg>
