<svg width="25" height="25" viewBox="0 0 25 25" fill="none" xmlns="http://www.w3.org/2000/svg">
<g clip-path="url(#clip0_411_391)">
<path d="M12 25H4C3.20435 25 2.44129 24.6839 1.87868 24.1213C1.31607 23.5587 1 22.7956 1 22L1 14H12V25ZM3 16V22C3 22.2652 3.10536 22.5195 3.29289 22.7071C3.48043 22.8946 3.73478 23 4 23H10V16H3Z" fill="#7D7D7D"/>
<path d="M22 25H14V14H25V22C25 22.7956 24.6839 23.5587 24.1213 24.1213C23.5587 24.6839 22.7956 25 22 25ZM16 23H22C22.2652 23 22.5196 22.8946 22.7071 22.7071C22.8946 22.5195 23 22.2652 23 22V16H16V23Z" fill="#7D7D7D"/>
</g>
<path d="M16.0043 12V1.81818H17.8487V6.49645H17.973L21.9453 1.81818H24.1974L20.2599 6.38707L24.2322 12H22.0149L18.9773 7.63494L17.8487 8.96733V12H16.0043Z" fill="#7D7D7D"/>
<path d="M1.00426 1.81818H3.26136L6.28409 9.19602H6.40341L9.42614 1.81818H11.6832V12H9.91335V5.00497H9.81889L7.00497 11.9702H5.68253L2.86861 4.99006H2.77415V12H1.00426V1.81818Z" fill="#7D7D7D"/>
<defs>
<clipPath id="clip0_411_391">
<rect width="24" height="24" fill="white" transform="translate(1 1)"/>
</clipPath>
</defs>
</svg>
