<svg width="14" height="14" viewBox="0 0 14 14" fill="none" xmlns="http://www.w3.org/2000/svg">
<g clip-path="url(#clip0_297_438)">
<path d="M10.5 4.78333V0H11.6667V4.78333L12.9745 3.4755L13.7993 4.30033L12.1024 5.99725C11.832 6.26733 11.4655 6.41904 11.0833 6.41904C10.7012 6.41904 10.3346 6.26733 10.0642 5.99725L8.3895 4.32017L9.21667 3.49533L10.5 4.78333ZM12.9272 6.825C12.8981 6.85417 12.8637 6.87517 12.8333 6.90258V12.8333H1.16667V5.29083L4.93792 9.06267C5.48487 9.60946 6.2266 9.91663 7 9.91663C7.7734 9.91663 8.51513 9.60946 9.06208 9.06267L10.5892 7.53492C10.178 7.45427 9.79287 7.274 9.4675 7.00992L8.23725 8.24017C7.90377 8.55806 7.46072 8.73539 7 8.73539C6.53928 8.73539 6.09623 8.55806 5.76275 8.24017L1.16667 3.64117V3.5C1.16667 3.34529 1.22812 3.19692 1.33752 3.08752C1.44692 2.97812 1.59529 2.91667 1.75 2.91667H8.16667L9.33333 1.75H1.75C1.28587 1.75 0.840752 1.93437 0.512563 2.26256C0.184374 2.59075 0 3.03587 0 3.5L0 14H14V5.747L12.9272 6.825Z" fill="#7D7D7D"/>
</g>
<defs>
<clipPath id="clip0_297_438">
<rect width="14" height="14" fill="white"/>
</clipPath>
</defs>
</svg>
