<svg width="13" height="13" viewBox="0 0 13 13" fill="none" xmlns="http://www.w3.org/2000/svg">
<g clip-path="url(#clip0_6_113)">
<path d="M9.53846 4.3453V0H10.5983V4.3453L11.7864 3.15723L12.5357 3.90653L10.9941 5.44805C10.7485 5.6934 10.4155 5.83121 10.0684 5.83121C9.72121 5.83121 9.38824 5.6934 9.14262 5.44805L7.62123 3.92455L8.37265 3.17525L9.53846 4.3453ZM11.7434 6.2C11.7169 6.2265 11.6857 6.24557 11.6581 6.27048V11.6581H1.05983V4.80632L4.48573 8.23275C4.9826 8.72947 5.6564 9.00851 6.35897 9.00851C7.06155 9.00851 7.73535 8.72947 8.23222 8.23275L9.61954 6.84491C9.24598 6.77164 8.89608 6.60789 8.60051 6.36798L7.48292 7.48557C7.17998 7.77435 6.77751 7.93545 6.35897 7.93545C5.94044 7.93545 5.53797 7.77435 5.23503 7.48557L1.05983 3.30773V3.17949C1.05983 3.03895 1.11566 2.90416 1.21504 2.80478C1.31442 2.7054 1.4492 2.64957 1.58974 2.64957H7.4188L8.47863 1.58974H1.58974C1.16812 1.58974 0.76376 1.75723 0.465625 2.05537C0.16749 2.3535 0 2.75786 0 3.17949L0 12.7179H12.7179V5.22072L11.7434 6.2Z" fill="#E16C00"/>
</g>
<defs>
<clipPath id="clip0_6_113">
<rect width="12.7179" height="12.7179" fill="white"/>
</clipPath>
</defs>
</svg>
