<svg width="24" height="24" viewBox="0 0 24 24" fill="none" xmlns="http://www.w3.org/2000/svg">
<g clip-path="url(#clip0_348_424)">
<path d="M0 3V11H11V0H3C2.20435 0 1.44129 0.31607 0.87868 0.87868C0.31607 1.44129 0 2.20435 0 3H0ZM9 9H2V3C2 2.73478 2.10536 2.48043 2.29289 2.29289C2.48043 2.10536 2.73478 2 3 2H9V9Z" fill="#7D7D7D"/>
<path d="M0 21C0 21.7956 0.31607 22.5587 0.87868 23.1213C1.44129 23.6839 2.20435 24 3 24H11V13H0V21ZM2 15H9V22H3C2.73478 22 2.48043 21.8946 2.29289 21.7071C2.10536 21.5195 2 21.2652 2 21V15Z" fill="#7D7D7D"/>
<path d="M13 13V24H21C21.7956 24 22.5587 23.6839 23.1213 23.1213C23.6839 22.5587 24 21.7956 24 21V13H13ZM22 21C22 21.2652 21.8946 21.5195 21.7071 21.7071C21.5196 21.8946 21.2652 22 21 22H15V15H22V21Z" fill="#7D7D7D"/>
<path d="M17 11H19V6.99995H23V4.99995H19V0.999954H17V4.99995H13V6.99995H17V11Z" fill="#7D7D7D"/>
</g>
<defs>
<clipPath id="clip0_348_424">
<rect width="24" height="24" fill="white"/>
</clipPath>
</defs>
</svg>
