<svg width="24" height="24" viewBox="0 0 24 24" fill="none" xmlns="http://www.w3.org/2000/svg">
<g clip-path="url(#clip0_371_425)">
<path d="M1.4437 6.66874C1.10885 6.76442 0.804795 6.94586 0.561607 7.19513C0.318419 7.44439 0.144531 7.75284 0.0571494 8.08994C-0.0302325 8.42704 -0.0280796 8.78112 0.063395 9.11713C0.15487 9.45315 0.332495 9.75945 0.578696 10.0057L3.9907 13.4137V19.9997H10.5837L14.0187 23.4297C14.2031 23.6157 14.4224 23.7634 14.664 23.8643C14.9056 23.9652 15.1648 24.0173 15.4267 24.0177C15.5988 24.0174 15.7702 23.9952 15.9367 23.9517C16.2737 23.8669 16.5823 23.6947 16.8316 23.4526C17.0809 23.2105 17.262 22.9071 17.3567 22.5727L23.9907 0.020752L1.4437 6.66874ZM1.9997 8.59174L19.0277 3.57175L5.9927 16.5857V12.5857L1.9997 8.59174ZM15.4397 22.0157L11.4127 17.9997H7.4127L20.4457 4.97775L15.4397 22.0157Z" fill="#7D7D7D"/>
</g>
<defs>
<clipPath id="clip0_371_425">
<rect width="24" height="24" fill="white"/>
</clipPath>
</defs>
</svg>
