<svg width="44" height="44" viewBox="0 0 44 44" fill="none" xmlns="http://www.w3.org/2000/svg">
<g clip-path="url(#clip0_162_449)">
<path d="M31 34.0006H29V28.9576C28.9992 28.1736 28.6874 27.4219 28.133 26.8676C27.5787 26.3132 26.827 26.0014 26.043 26.0006H17.957C17.173 26.0014 16.4213 26.3132 15.867 26.8676C15.3126 27.4219 15.0008 28.1736 15 28.9576V34.0006H13V28.9576C13.0016 27.6434 13.5244 26.3835 14.4536 25.4542C15.3829 24.525 16.6428 24.0022 17.957 24.0006H26.043C27.3572 24.0022 28.6171 24.525 29.5464 25.4542C30.4756 26.3835 30.9984 27.6434 31 28.9576V34.0006Z" fill="white"/>
<path d="M22 21.9999C20.8133 21.9999 19.6533 21.648 18.6666 20.9888C17.6799 20.3295 16.9109 19.3924 16.4567 18.296C16.0026 17.1997 15.8838 15.9933 16.1153 14.8294C16.3468 13.6655 16.9182 12.5964 17.7574 11.7573C18.5965 10.9182 19.6656 10.3467 20.8295 10.1152C21.9933 9.88372 23.1997 10.0025 24.2961 10.4567C25.3925 10.9108 26.3295 11.6798 26.9888 12.6665C27.6481 13.6532 28 14.8133 28 15.9999C27.9984 17.5908 27.3658 19.116 26.2409 20.2408C25.116 21.3657 23.5908 21.9984 22 21.9999V21.9999ZM22 11.9999C21.2089 11.9999 20.4355 12.2345 19.7777 12.6741C19.1199 13.1136 18.6072 13.7383 18.3045 14.4692C18.0017 15.2001 17.9225 16.0044 18.0769 16.7803C18.2312 17.5562 18.6122 18.269 19.1716 18.8284C19.731 19.3878 20.4437 19.7687 21.2196 19.9231C21.9956 20.0774 22.7998 19.9982 23.5307 19.6955C24.2616 19.3927 24.8864 18.88 25.3259 18.2222C25.7654 17.5644 26 16.7911 26 15.9999C26 14.9391 25.5786 13.9217 24.8284 13.1715C24.0783 12.4214 23.0609 11.9999 22 11.9999Z" fill="white"/>
</g>
<defs>
<clipPath id="clip0_162_449">
<rect width="24" height="24" fill="white" transform="translate(10 10)"/>
</clipPath>
</defs>
</svg>
