<svg width="24" height="24" viewBox="0 0 24 24" fill="none" xmlns="http://www.w3.org/2000/svg">
<g clip-path="url(#clip0_409_380)">
<path d="M23.9999 23.9994H21.9999C21.9978 22.1435 21.2596 20.3643 19.9473 19.052C18.635 17.7397 16.8558 17.0015 14.9999 16.9994H10.1699V23.4134L0.876895 14.1204C0.314481 13.5578 -0.00146484 12.7949 -0.00146484 11.9994C-0.00146484 11.2039 0.314481 10.441 0.876895 9.8784L10.1699 0.585403V6.9994H14.9999C17.386 7.00205 19.6737 7.95111 21.3609 9.63837C23.0482 11.3256 23.9973 13.6133 23.9999 15.9994V23.9994ZM8.1699 5.4134L2.29089 11.2924C2.10342 11.4799 1.99811 11.7342 1.99811 11.9994C1.99811 12.2646 2.10342 12.5189 2.29089 12.7064L8.1699 18.5854V14.9994H14.9999C16.3427 14.9993 17.6685 15.3001 18.8799 15.8796C20.0912 16.4592 21.1574 17.3028 21.9999 18.3484V15.9994C21.9978 14.1435 21.2596 12.3643 19.9473 11.052C18.635 9.7397 16.8558 9.00152 14.9999 8.9994H8.1699V5.4134Z" fill="black"/>
</g>
<defs>
<clipPath id="clip0_409_380">
<rect width="24" height="24" fill="white"/>
</clipPath>
</defs>
</svg>
