<svg width="19" height="19" viewBox="0 0 19 19" fill="none" xmlns="http://www.w3.org/2000/svg">
<g clip-path="url(#clip0_486_1528)">
<path d="M19 2.375H3.35825L3.325 2.09712C3.25696 1.51954 2.97935 0.986996 2.5448 0.600462C2.11026 0.213927 1.549 0.000270586 0.967417 0L0 0V1.58333H0.967417C1.16132 1.58336 1.34848 1.65455 1.49338 1.7834C1.63828 1.91225 1.73085 2.0898 1.75354 2.28237L3.00833 12.9445C3.07638 13.5221 3.35399 14.0547 3.78853 14.4412C4.22307 14.8277 4.78434 15.0414 5.36592 15.0417H15.8333V13.4583H5.36592C5.17189 13.4583 4.98464 13.387 4.83972 13.258C4.6948 13.129 4.6023 12.9512 4.57979 12.7585L4.47608 11.875H17.2868L19 2.375ZM15.9632 10.2917H4.29004L3.54508 3.95833H17.1055L15.9632 10.2917Z" fill="#7D7D7D"/>
<path d="M5.54183 19.0005C6.41628 19.0005 7.12516 18.2916 7.12516 17.4172C7.12516 16.5427 6.41628 15.8338 5.54183 15.8338C4.66738 15.8338 3.9585 16.5427 3.9585 17.4172C3.9585 18.2916 4.66738 19.0005 5.54183 19.0005Z" fill="#7D7D7D"/>
<path d="M13.4583 19.0005C14.3328 19.0005 15.0417 18.2916 15.0417 17.4172C15.0417 16.5427 14.3328 15.8338 13.4583 15.8338C12.5839 15.8338 11.875 16.5427 11.875 17.4172C11.875 18.2916 12.5839 19.0005 13.4583 19.0005Z" fill="#7D7D7D"/>
</g>
<defs>
<clipPath id="clip0_486_1528">
<rect width="19" height="19" fill="white"/>
</clipPath>
</defs>
</svg>
