<svg width="24" height="24" viewBox="0 0 24 24" fill="none" xmlns="http://www.w3.org/2000/svg">
<g clip-path="url(#clip0_28_112)">
<path d="M14.12 1.62659C13.4886 1.21765 12.7523 1.00006 12 1.00006C11.2477 1.00006 10.5114 1.21765 9.88 1.62659L0 7.99959L4 10.5796V20.4136L4.293 20.7066C4.387 20.7996 6.647 22.9996 12 22.9996C17.353 22.9996 19.613 20.7996 19.707 20.7066L20 20.4136V10.5796L22 9.28959V19.9996H24V7.99959L14.12 1.62659ZM18 19.5156C16.1928 20.5978 14.1033 21.1146 12 20.9996C9.89685 21.1148 7.8073 20.5984 6 19.5166V11.8696L9.88 14.3696C10.5111 14.7795 11.2475 14.9977 12 14.9977C12.7525 14.9977 13.4889 14.7795 14.12 14.3696L18 11.8696V19.5156ZM13.036 12.6916C12.7277 12.8921 12.3678 12.9989 12 12.9989C11.6322 12.9989 11.2723 12.8921 10.964 12.6916L3.69 7.99959L10.964 3.30759C11.2723 3.10705 11.6322 3.0003 12 3.0003C12.3678 3.0003 12.7277 3.10705 13.036 3.30759L20.31 7.99959L13.036 12.6916Z" fill="#7D7D7D"/>
</g>
<defs>
<clipPath id="clip0_28_112">
<rect width="24" height="24" fill="white"/>
</clipPath>
</defs>
</svg>
